<?xml version="1.0" encoding="utf-8"?>
<!-- Generator: Adobe Illustrator 28.0.0, SVG Export Plug-In . SVG Version: 6.00 Build 0)  -->
<svg version="1.1" id="Layer_1" xmlns="http://www.w3.org/2000/svg" xmlns:xlink="http://www.w3.org/1999/xlink" x="0px" y="0px"
	 viewBox="0 0 160 38" style="enable-background:new 0 0 160 38;" xml:space="preserve">
<style type="text/css">
	.st0{fill:#FFFFFF;}
</style>
<g>
	<path class="st0" d="M6.8,13.5c0.6,0,1.2,0.1,1.7,0.2c0.6,0.2,1.1,0.4,1.6,0.7l-0.6,1.2c-0.5-0.3-1-0.5-1.4-0.6
		C7.7,15,7.2,15,6.8,15c-1.2,0-2.1,0.4-2.8,1.1c-0.7,0.7-1,1.8-1,3.2c0,1.4,0.3,2.5,1,3.2c0.6,0.8,1.6,1.1,2.8,1.1
		c0.9,0,1.9-0.2,2.9-0.7l0.6,1.3c-0.5,0.2-1.1,0.4-1.7,0.6c-0.6,0.1-1.2,0.2-1.8,0.2c-1.7,0-3-0.5-3.9-1.5c-0.9-1-1.4-2.4-1.4-4.3
		c0-1.2,0.2-2.2,0.6-3.1c0.4-0.9,1-1.5,1.8-2C4.7,13.8,5.7,13.5,6.8,13.5z M17.3,21.7L16.2,25h-1.5l3.9-11.3h1.9l4,11.3H23l-1.2-3.3
		H17.3z M19.5,15.3l-1.7,5.1h3.6l-1.8-5.1H19.5z M36.7,25H30V13.7h1.5v10h5.2V25z M51.8,15.5c-0.1,0.3-0.3,0.9-0.5,1.8
		c-0.3,0.9-0.5,1.6-0.7,2.2l-1.8,5.2h-1.5l-1.8-5.2c-0.2-0.6-0.5-1.4-0.7-2.2c-0.3-0.9-0.4-1.5-0.5-1.7l-0.5,4L43,25h-1.5L43,13.7
		h1.9l2,6c0.1,0.2,0.1,0.4,0.2,0.7c0.1,0.3,0.2,0.5,0.3,0.8c0.3,0.8,0.4,1.4,0.6,1.8c0.1-0.4,0.3-1,0.6-1.8c0.1-0.3,0.2-0.6,0.3-0.8
		c0.1-0.3,0.2-0.5,0.2-0.7l2-6H53L54.4,25H53l-0.7-5.5L51.8,15.5z"/>
	<path class="st0" d="M69.2,14.3c-1-3-1.5-6-2-8.7c2.6,0.4,5.7,1,8.7,2C77.7,4,80.5,0.3,80.7,0c0.2,0.3,3,4,4.7,7.6c3-1,6-1.5,8.7-2
		c-0.4,2.6-1,5.7-2,8.7c3.6,1.8,7.2,4.5,7.6,4.7c-2.3,1.6-4.9,3.4-7.6,4.7c1,3,1.5,6,2,8.7c-2.6-0.4-5.7-1-8.7-2
		c-1.8,3.6-4.5,7.2-4.7,7.6c-0.2-0.3-3-4-4.7-7.6c-3,1-6,1.5-8.7,2c0.4-2.6,1-5.7,2-8.7C65.7,22,62,19.2,61.7,19
		C62,18.8,65.7,16,69.2,14.3z M75,9.6c-1.7-0.6-3.7-1-5-1.3c0.3,1.3,0.7,3.3,1.3,5c1.5-0.5,2.4-0.5,3.8,0C74.5,12,74.5,11.1,75,9.6z
		 M80.7,3.9c-1,1.5-3.8,5.9-3.8,7.7c0,1.6,2.6,4.6,3.8,5.8c1.1-1.2,3.8-4.2,3.8-5.8C84.5,9.8,81.7,5.4,80.7,3.9z M90,13.4
		c0.6-1.7,1-3.7,1.3-5c-1.3,0.3-3.3,0.7-5,1.3c0.5,1.5,0.5,2.4,0,3.8C87.6,12.9,88.5,12.8,90,13.4z M95.8,19c-1.5-1-5.9-3.8-7.7-3.8
		c-1.6,0-4.6,2.6-5.8,3.8c1.2,1.1,4.2,3.8,5.8,3.8C89.8,22.8,94.3,20,95.8,19z M86.3,28.4c1.7,0.6,3.7,1,5,1.3
		c-0.3-1.3-0.7-3.3-1.3-5c-1.5,0.5-2.4,0.5-3.8,0C86.8,25.9,86.8,26.8,86.3,28.4z M80.7,34.1c1-1.5,3.8-5.9,3.8-7.7
		c0-1.6-2.7-4.7-3.8-5.8c-1.1,1.2-3.8,4.2-3.8,5.8C76.9,28.2,79.7,32.6,80.7,34.1z M71.3,24.6c-0.6,1.7-1,3.7-1.3,5
		c1.3-0.3,3.3-0.7,5-1.3c-0.5-1.4-0.5-2.4,0-3.8C73.8,25.1,72.9,25.2,71.3,24.6z M73.2,22.8c1.6,0,4.6-2.6,5.8-3.8
		c-1.2-1.2-4.2-3.8-5.8-3.8c-1.7,0-6.2,2.8-7.7,3.8C67,20,71.5,22.8,73.2,22.8z"/>
	<path class="st0" d="M116.7,15.5c-0.1,0.3-0.3,0.9-0.5,1.8c-0.3,0.9-0.5,1.6-0.7,2.2l-1.8,5.2h-1.5l-1.8-5.2
		c-0.2-0.6-0.5-1.4-0.7-2.2c-0.3-0.9-0.4-1.5-0.5-1.7l-0.5,4l-0.7,5.5h-1.5l1.4-11.3h1.9l2,6c0.1,0.2,0.1,0.4,0.2,0.7
		c0.1,0.3,0.2,0.5,0.3,0.8c0.3,0.8,0.4,1.4,0.6,1.8c0.1-0.4,0.3-1,0.6-1.8c0.1-0.3,0.2-0.6,0.3-0.8c0.1-0.3,0.2-0.5,0.2-0.7l2-6h1.9
		l1.4,11.3h-1.5l-0.7-5.5L116.7,15.5z M125.5,13.7h1.5V25h-1.5V13.7z M137,18.9c-0.5-0.7-1.1-1.6-1.8-2.8V25h-1.5V13.7h1.3l4.2,6
		c0.4,0.6,1,1.6,1.9,2.9v-8.9h1.5V25h-1.3L137,18.9z M153.1,13.7c1.8,0,3.1,0.5,4,1.5c0.9,1,1.4,2.4,1.4,4.2c0,1.8-0.5,3.2-1.4,4.2
		c-0.9,1-2.3,1.5-4,1.5h-3.7V13.7H153.1z M153.1,23.6c1.2,0,2.2-0.4,2.9-1.1c0.7-0.7,1-1.8,1-3.2c0-1.4-0.3-2.5-1-3.2
		c-0.7-0.7-1.6-1.1-2.9-1.1H151v8.6H153.1z"/>
</g>
</svg>
