<svg width="341" height="357" viewBox="0 0 341 357" fill="none" xmlns="http://www.w3.org/2000/svg">
<g style="mix-blend-mode:multiply" opacity="0.56">
<path d="M326.93 336.57C326.93 339.09 260.79 341.14 179.2 341.14C97.6102 341.14 31.4702 339.09 31.4702 336.57C31.4702 334.05 97.6102 332 179.2 332C260.79 332 326.93 334.05 326.93 336.57Z" fill="#C0C0C0"/>
</g>
<path d="M170.6 62.6098C157.28 61.2198 144.2 64.9198 132.28 70.6698C121.46 75.8898 111.32 82.6598 102.15 90.4098C84.93 104.96 70.5 123.83 63.86 145.58C57.2 167.39 59.91 190.41 70.5 210.51C81.61 231.61 99.75 248.46 120.13 260.49C142.44 273.66 167.89 281.46 193.75 283.02C217.43 284.45 242.76 280.66 262.64 266.91C280.77 254.37 291.41 234.28 294.25 212.66C297.19 190.32 292 167.87 280.9 148.4C269.11 127.73 251.6 110.82 232.29 97.1698C211.27 82.2998 186.83 69.2298 160.7 67.3398C154.4 66.8798 148.11 67.1798 141.88 68.1898C140.92 68.3498 141.32 69.8098 142.28 69.6598C168.86 65.3498 195.12 75.7898 217.5 89.3198C237.3 101.29 255.81 116.17 269.92 134.65C283.58 152.54 292.64 173.75 293.47 196.41C294.25 217.56 288.16 239.47 273.68 255.31C257.62 272.88 233.57 280.35 210.37 281.59C185.43 282.92 160.03 277.8 137.26 267.64C96.38 249.39 57.02 210.18 62.04 161.93C64.36 139.63 75.94 119.22 91.04 103.05C98.71 94.8298 107.38 87.5598 116.74 81.3398C127.33 74.3098 138.94 68.2198 151.4 65.3698C157.71 63.9298 164.14 63.4598 170.58 64.1298C171.55 64.2298 171.55 62.7098 170.58 62.6098H170.6Z" fill="#E9FBFF"/>
<path d="M180.68 288.15C167.07 292.87 152.28 290.76 138.4 288.51C125.11 286.35 111.94 283.25 99.2702 278.65C75.3402 269.95 53.1702 255.35 38.8002 233.97C25.4902 214.17 20.9902 190.33 26.8102 167.13C32.4602 144.62 46.3902 124.48 64.2702 109.88C105.37 76.3199 164.03 74.0299 214.36 80.3399C229.05 82.1799 243.62 85.0399 257.85 89.1199C269.77 92.5399 282.15 96.6299 291.93 104.54C302.25 112.89 307.3 125.07 306.89 138.26C306.46 151.97 300.47 164.62 292.81 175.73C278.49 196.5 259.66 214.8 239.82 230.26C219.85 245.83 197.79 258.76 174.42 268.49C168.8 270.83 163.1 272.98 157.34 274.95C156.42 275.27 156.81 276.74 157.74 276.42C207.11 259.5 251.63 228.89 284.87 188.63C300.76 169.39 316.39 142.65 304.29 117.43C299.08 106.57 288.91 99.4099 278.19 94.6299C265.32 88.8899 251.3 85.3999 237.54 82.5999C209.53 76.8999 180.27 74.6499 151.75 76.9699C125.5 79.0999 99.2602 85.6499 76.5802 99.3699C36.7302 123.46 9.8102 174.34 29.3102 219.78C39.1602 242.73 58.3802 260.61 80.2802 272.01C92.5202 278.38 105.65 282.92 119.04 286.18C132.71 289.51 147.14 292.26 161.25 292.49C167.99 292.6 174.7 291.84 181.09 289.63C182.01 289.31 181.61 287.84 180.69 288.16L180.68 288.15Z" fill="#E9FBFF"/>
<path d="M68.839 150.573C71.8109 147.601 71.8109 142.783 68.839 139.811C65.8672 136.839 61.0488 136.839 58.0769 139.811C55.105 142.783 55.105 147.601 58.0769 150.573C61.0488 153.545 65.8672 153.545 68.839 150.573Z" fill="#E9FBFF"/>
<path d="M80.2098 62.4401C80.2098 64.9601 78.1598 67.0101 75.6398 67.0101C73.1198 67.0101 71.0698 64.9601 71.0698 62.4401C71.0698 59.9201 73.1198 57.8701 75.6398 57.8701C78.1598 57.8701 80.2098 59.9201 80.2098 62.4401Z" fill="#E9FBFF"/>
<path d="M55.8402 215.25C55.8402 217.77 53.7902 219.82 51.2702 219.82C48.7502 219.82 46.7002 217.77 46.7002 215.25C46.7002 212.73 48.7502 210.68 51.2702 210.68C53.7902 210.68 55.8402 212.73 55.8402 215.25Z" fill="#E9FBFF"/>
<path d="M248.25 141.38C248.25 143.48 246.55 145.19 244.44 145.19C242.33 145.19 240.63 143.49 240.63 141.38C240.63 139.27 242.33 137.57 244.44 137.57C246.55 137.57 248.25 139.27 248.25 141.38Z" fill="#E9FBFF"/>
<path d="M116.76 139.35C116.76 140.33 115.96 141.13 114.98 141.13C114 141.13 113.2 140.33 113.2 139.35C113.2 138.37 114 137.57 114.98 137.57C115.96 137.57 116.76 138.37 116.76 139.35Z" fill="#E9FBFF"/>
<path d="M232 39.3398C232 40.8798 230.75 42.1298 229.21 42.1298C227.67 42.1298 226.42 40.8798 226.42 39.3398C226.42 37.7998 227.67 36.5498 229.21 36.5498C230.75 36.5498 232 37.7998 232 39.3398Z" fill="#E9FBFF"/>
<path d="M232 265.76C232 267.3 230.75 268.55 229.21 268.55C227.67 268.55 226.42 267.3 226.42 265.76C226.42 264.22 227.67 262.97 229.21 262.97C230.75 262.97 232 264.22 232 265.76Z" fill="#E9FBFF"/>
<path d="M340.13 204.08C340.13 207.72 337.18 210.68 333.53 210.68C329.88 210.68 326.93 207.73 326.93 204.08C326.93 200.43 329.88 197.48 333.53 197.48C337.18 197.48 340.13 200.43 340.13 204.08Z" fill="#E9FBFF"/>
<path d="M12.1798 263.99C16.1066 263.99 19.2898 260.807 19.2898 256.88C19.2898 252.953 16.1066 249.77 12.1798 249.77C8.25308 249.77 5.06982 252.953 5.06982 256.88C5.06982 260.807 8.25308 263.99 12.1798 263.99Z" fill="#E9FBFF"/>
<path d="M5.58 99.7602C5.58 101.3 4.33 102.55 2.79 102.55C1.25 102.55 0 101.3 0 99.7602C0 98.2202 1.25 96.9702 2.79 96.9702C4.33 96.9702 5.58 98.2202 5.58 99.7602Z" fill="#E9FBFF"/>
<path d="M175.65 16.24C180.134 16.24 183.77 12.6046 183.77 8.12C183.77 3.63545 180.134 0 175.65 0C171.165 0 167.53 3.63545 167.53 8.12C167.53 12.6046 171.165 16.24 175.65 16.24Z" fill="#E9FBFF"/>
<path d="M218.3 356.38C221.382 356.38 223.88 353.882 223.88 350.8C223.88 347.718 221.382 345.22 218.3 345.22C215.218 345.22 212.72 347.718 212.72 350.8C212.72 353.882 215.218 356.38 218.3 356.38Z" fill="#E9FBFF"/>
<path d="M294.95 122.85C298.595 122.85 301.55 119.895 301.55 116.25C301.55 112.605 298.595 109.65 294.95 109.65C291.305 109.65 288.35 112.605 288.35 116.25C288.35 119.895 291.305 122.85 294.95 122.85Z" fill="#E9FBFF"/>
<path d="M108.05 237.68L113.27 233.41C110.95 228.1 105.37 227.2 102.23 227.15L96.8901 229.93C98.4301 237.68 108.05 237.68 108.05 237.68Z" fill="#1D3542"/>
<path d="M151.43 232.23C151.43 232.23 142.9 227.01 137.21 233.65C137.21 233.65 131.99 229.38 122.99 236.02L119.67 237.44C119.67 237.44 128.68 244.55 138.63 239.34C138.63 239.34 154.28 241.71 154.75 237.44C155.22 233.17 151.43 232.22 151.43 232.22V232.23Z" fill="#1D3542"/>
<path d="M178.69 135.74C178.69 135.74 206.19 123.89 211.4 100.66C216.62 77.4301 196.7 51.8301 196.7 51.8301C196.7 51.8301 114.2 122.47 132.22 137.17C141.51 144.75 178.68 141.44 178.68 141.44" fill="#1D3542"/>
<mask id="mask0_22_12414" style="mask-type:luminance" maskUnits="userSpaceOnUse" x="129" y="51" width="84" height="92">
<path d="M178.69 135.74C178.69 135.74 206.19 123.89 211.4 100.66C216.62 77.4301 196.7 51.8301 196.7 51.8301C196.7 51.8301 114.2 122.47 132.22 137.17C141.51 144.75 178.68 141.44 178.68 141.44" fill="white"/>
</mask>
<g mask="url(#mask0_22_12414)">
<g style="mix-blend-mode:multiply" opacity="0.22">
<path d="M145.98 109.67C145.98 109.67 154.99 132.43 171.58 131.48C188.17 130.53 199.85 109.36 200.89 98.61C201.93 87.86 144.08 97.82 145.98 109.67Z" fill="#1D3542"/>
</g>
</g>
<path d="M146.93 250.01C146.93 250.01 128.91 277.51 127.97 281.78C127.97 281.78 66.8101 285.1 52.5901 291.26C38.3701 297.42 33.1501 315.91 45.4801 325.4C57.8101 334.89 139.83 338.2 162.59 330.14C162.59 330.14 280.17 345.79 300.08 323.03C319.99 300.27 264.05 277.99 216.64 280.36C216.64 280.36 200.05 247.65 191.04 243.38C182.03 239.11 146.95 250.02 146.95 250.02L146.93 250.01Z" fill="#D25A5C"/>
<mask id="mask1_22_12414" style="mask-type:luminance" maskUnits="userSpaceOnUse" x="38" y="242" width="267" height="94">
<path d="M146.93 250.01C146.93 250.01 128.91 277.51 127.97 281.78C127.97 281.78 66.8101 285.1 52.5901 291.26C38.3701 297.42 33.1501 315.91 45.4801 325.4C57.8101 334.89 139.83 338.2 162.59 330.14C162.59 330.14 280.17 345.79 300.08 323.03C319.99 300.27 264.05 277.99 216.64 280.36C216.64 280.36 200.05 247.65 191.04 243.38C182.03 239.11 146.95 250.02 146.95 250.02L146.93 250.01Z" fill="white"/>
</mask>
<g mask="url(#mask1_22_12414)">
<g style="mix-blend-mode:multiply" opacity="0.23">
<path d="M170.44 331.08C170.44 331.08 146.93 329.18 125.59 314.01C125.59 314.01 138.87 332.5 154.04 335.35C169.21 338.19 170.44 331.08 170.44 331.08Z" fill="#D25A5C"/>
</g>
<g style="mix-blend-mode:multiply" opacity="0.23">
<path d="M81.0199 292.68C80.1199 293.67 75.3299 296 80.0699 297.9C84.8099 299.8 110.89 314.02 117.53 312.12C124.17 310.22 85.7599 287.47 81.0199 292.68Z" fill="#D25A5C"/>
</g>
<g style="mix-blend-mode:multiply" opacity="0.23">
<path d="M221.29 309.68C222.31 309.75 242.7 304.53 251.7 300.74C260.71 296.95 262.6 294.1 264.98 294.1C267.36 294.1 266.88 289.36 260.24 289.83C253.6 290.3 226.1 302.16 226.1 302.16L221.29 310.37" fill="#D25A5C"/>
</g>
<g style="mix-blend-mode:multiply" opacity="0.23">
<path d="M214.73 297.89C214.73 297.89 192.92 302.63 189.6 302.16C186.28 301.69 196.24 281.3 219.47 279.4C219.47 279.4 196.71 278.93 181.54 295.99C166.37 313.06 153.57 291.72 144.08 286.98C144.08 286.98 159.32 306.2 160 308.68C160 308.68 183.59 305.65 190.39 306.74C190.39 306.74 207.62 306.89 215.91 297.65L214.72 297.89H214.73Z" fill="#D25A5C"/>
</g>
<path d="M133.48 307.06C140.39 310.16 148.02 310.15 155.42 309.5C163.73 308.77 172 307.75 180.34 307.36C189.02 306.95 197.73 307.01 206.39 307.73C209.01 307.95 211.61 308.16 214.16 308.78C216.42 309.33 218.66 309.97 220.89 310.62C225.54 311.98 230.25 313.31 234.77 315.07C235.2 315.24 235.38 314.55 234.96 314.38C231.09 312.88 227.06 311.72 223.09 310.53C219.12 309.34 215.12 307.93 211.04 307.47C193.97 305.54 176.83 306.51 159.81 308.35C151.16 309.28 142 310.11 133.84 306.45C133.43 306.26 133.06 306.88 133.48 307.06Z" fill="#AA353B"/>
<path d="M126.91 316.09C139.31 323.34 152.87 328.49 166.96 331.31C167.41 331.4 167.6 330.71 167.15 330.62C153.12 327.82 139.62 322.69 127.27 315.47C126.87 315.24 126.52 315.85 126.91 316.08V316.09Z" fill="#AA353B"/>
<path d="M102.5 301.25C95.24 299.44 87.5 297.73 80.21 300.39C79.78 300.55 79.9701 301.23 80.4001 301.08C87.5701 298.46 95.16 300.16 102.31 301.94C102.75 302.05 102.94 301.36 102.5 301.25Z" fill="#AA353B"/>
<g style="mix-blend-mode:multiply" opacity="0.49">
<path d="M159.16 308.15C156.52 304.33 153.87 300.5 151.23 296.68L159.16 308.15Z" fill="#D25A5C"/>
</g>
<path d="M220.65 278.81C217.4 278.96 214.17 279.72 211.07 280.66C207.97 281.6 204.87 282.78 202 284.34C201.6 284.56 201.96 285.17 202.36 284.95C205.18 283.42 208.2 282.27 211.26 281.34C214.32 280.41 217.46 279.66 220.65 279.51C221.11 279.49 221.11 278.78 220.65 278.8V278.81Z" fill="#AA353B"/>
<path d="M125.59 281.68C130.61 281.87 135.43 284.04 138.91 287.66C139.23 287.99 139.73 287.49 139.41 287.16C135.8 283.4 130.79 281.17 125.59 280.97C125.13 280.95 125.13 281.66 125.59 281.68Z" fill="#AA353B"/>
<path d="M212.22 300.75C206.2 303.83 200 306.22 193.16 306.31C192.7 306.31 192.7 307.03 193.16 307.02C200.13 306.93 206.46 304.5 212.58 301.37C212.99 301.16 212.63 300.55 212.22 300.76V300.75Z" fill="#AA353B"/>
</g>
<path d="M126.39 157.18C126.43 158.13 124.38 164.87 122.35 182.52C120.33 200.18 110.07 224.39 110.2 227.23C110.33 230.07 103.81 232.75 98.6798 244.86C93.5498 256.97 82.5598 265.55 79.8298 268.05C79.8298 268.05 74.0598 266.42 67.9198 267.18C61.7898 267.94 56.0098 266.31 54.9798 264.46C54.9798 264.46 52.2498 266.96 54.7298 269.22C57.2098 271.48 62.7998 269.32 64.3598 272.09C65.9098 274.87 62.3198 279.3 58.9398 278.04C55.5598 276.77 54.4998 274.45 53.9598 273.05C53.4198 271.65 55.5198 265.86 51.1898 264.64C51.1898 264.64 49.8998 272.53 50.4598 274.4C50.4598 274.4 44.4698 268.04 41.2798 271.03C41.2798 271.03 47.2098 275.97 47.7498 277.37C47.7498 277.37 42.8998 275.22 41.6198 278.13C41.6198 278.13 46.0198 280.77 47.9298 281.16C49.8498 281.55 51.2898 281.95 52.2998 283.33C52.2998 283.33 47.0498 282.63 46.7098 285.49C46.7098 285.49 51.9198 285.25 54.3298 286.08C56.7398 286.92 65.7798 287.44 69.0098 285.39C72.2398 283.34 116.66 258.96 126.51 236.19C126.51 236.19 138.38 195.77 138.41 186.27" fill="#F4A082"/>
<mask id="mask2_22_12414" style="mask-type:luminance" maskUnits="userSpaceOnUse" x="41" y="157" width="98" height="130">
<path d="M126.39 157.18C126.43 158.13 124.38 164.87 122.35 182.52C120.33 200.18 110.07 224.39 110.2 227.23C110.33 230.07 103.81 232.75 98.6798 244.86C93.5498 256.97 82.5598 265.55 79.8298 268.05C79.8298 268.05 74.0598 266.42 67.9198 267.18C61.7898 267.94 56.0098 266.31 54.9798 264.46C54.9798 264.46 52.2498 266.96 54.7298 269.22C57.2098 271.48 62.7998 269.32 64.3598 272.09C65.9098 274.87 62.3198 279.3 58.9398 278.04C55.5598 276.77 54.4998 274.45 53.9598 273.05C53.4198 271.65 55.5198 265.86 51.1898 264.64C51.1898 264.64 49.8998 272.53 50.4598 274.4C50.4598 274.4 44.4698 268.04 41.2798 271.03C41.2798 271.03 47.2098 275.97 47.7498 277.37C47.7498 277.37 42.8998 275.22 41.6198 278.13C41.6198 278.13 46.0198 280.77 47.9298 281.16C49.8498 281.55 51.2898 281.95 52.2998 283.33C52.2998 283.33 47.0498 282.63 46.7098 285.49C46.7098 285.49 51.9198 285.25 54.3298 286.08C56.7398 286.92 65.7798 287.44 69.0098 285.39C72.2398 283.34 116.66 258.96 126.51 236.19C126.51 236.19 138.38 195.77 138.41 186.27" fill="white"/>
</mask>
<g mask="url(#mask2_22_12414)">
<g style="mix-blend-mode:multiply" opacity="0.21">
<path d="M117.53 204.49C117.53 204.49 127.49 224.88 140.29 232.94C153.09 241 134.13 189.8 117.53 204.49Z" fill="#D18161"/>
</g>
</g>
<path d="M220.89 158.98C220.84 159.93 222.05 162.73 223.95 180.4C225.85 198.07 235.92 222.36 235.77 225.2C235.62 228.04 242.12 230.77 247.16 242.91C252.2 255.05 263.13 263.72 265.84 266.24C265.84 266.24 271.62 264.65 277.75 265.46C283.88 266.27 289.66 264.68 290.71 262.84C290.71 262.84 293.42 265.36 290.93 267.6C288.43 269.84 282.86 267.64 281.28 270.4C279.71 273.16 283.26 277.63 286.65 276.39C290.04 275.15 291.12 272.83 291.67 271.44C292.22 270.05 290.16 264.24 294.5 263.05C294.5 263.05 295.73 270.95 295.16 272.82C295.16 272.82 301.2 266.5 304.36 269.52C304.36 269.52 298.4 274.42 297.85 275.82C297.85 275.82 302.71 273.71 303.98 276.63C303.98 276.63 299.57 279.24 297.65 279.61C295.73 279.98 294.28 280.38 293.26 281.75C293.26 281.75 298.52 281.08 298.84 283.95C298.84 283.95 293.63 283.67 291.21 284.49C288.79 285.31 279.75 285.77 276.53 283.7C273.32 281.63 229.07 256.92 219.39 234.08C219.39 234.08 207.81 193.57 207.85 184.08" fill="#F4A082"/>
<mask id="mask3_22_12414" style="mask-type:luminance" maskUnits="userSpaceOnUse" x="207" y="158" width="98" height="128">
<path d="M220.89 158.98C220.84 159.93 222.05 162.73 223.95 180.4C225.85 198.07 235.92 222.36 235.77 225.2C235.62 228.04 242.12 230.77 247.16 242.91C252.2 255.05 263.13 263.72 265.84 266.24C265.84 266.24 271.62 264.65 277.75 265.46C283.88 266.27 289.66 264.68 290.71 262.84C290.71 262.84 293.42 265.36 290.93 267.6C288.43 269.84 282.86 267.64 281.28 270.4C279.71 273.16 283.26 277.63 286.65 276.39C290.04 275.15 291.12 272.83 291.67 271.44C292.22 270.05 290.16 264.24 294.5 263.05C294.5 263.05 295.73 270.95 295.16 272.82C295.16 272.82 301.2 266.5 304.36 269.52C304.36 269.52 298.4 274.42 297.85 275.82C297.85 275.82 302.71 273.71 303.98 276.63C303.98 276.63 299.57 279.24 297.65 279.61C295.73 279.98 294.28 280.38 293.26 281.75C293.26 281.75 298.52 281.08 298.84 283.95C298.84 283.95 293.63 283.67 291.21 284.49C288.79 285.31 279.75 285.77 276.53 283.7C273.32 281.63 229.07 256.92 219.39 234.08C219.39 234.08 207.81 193.57 207.85 184.08" fill="white"/>
</mask>
<g mask="url(#mask3_22_12414)">
<g style="mix-blend-mode:multiply" opacity="0.21">
<path d="M219.47 242.42C219.47 242.42 228.48 227.25 236.54 225.35C244.6 223.45 215.2 206.39 219.47 242.42Z" fill="#D18161"/>
</g>
</g>
<path d="M145.98 251.9L136.97 187.42L125.69 160.82C125.69 160.82 123.49 154.08 148.82 141.9C174.43 129.59 219.46 144.27 221.11 160.48C222.93 178.35 209.98 184.09 209.98 184.09L200.02 251.89C200.02 251.89 176.79 263.74 145.97 251.89L145.98 251.9Z" fill="#F4A082"/>
<mask id="mask4_22_12414" style="mask-type:luminance" maskUnits="userSpaceOnUse" x="125" y="137" width="97" height="121">
<path d="M145.98 251.9L136.97 187.42L125.69 160.82C125.69 160.82 123.49 154.08 148.82 141.9C174.43 129.59 219.46 144.27 221.11 160.48C222.93 178.35 209.98 184.09 209.98 184.09L200.02 251.89C200.02 251.89 176.79 263.74 145.97 251.89L145.98 251.9Z" fill="white"/>
</mask>
<g mask="url(#mask4_22_12414)">
<g style="mix-blend-mode:multiply" opacity="0.21">
<path d="M140.29 232.94C140.16 233.99 184 263.25 205.05 247.15C226.1 231.05 144.55 198.81 140.29 232.94Z" fill="#D18161"/>
</g>
</g>
<path d="M151.52 141.84C150.73 144.21 164.88 127.18 163.54 102.56H179.54C179.54 102.56 179.56 133.21 195.76 142.78C195.76 142.78 170.27 166.43 151.52 141.85V141.84Z" fill="#F4A082"/>
<mask id="mask5_22_12414" style="mask-type:luminance" maskUnits="userSpaceOnUse" x="151" y="102" width="45" height="52">
<path d="M151.52 141.84C150.73 144.21 164.88 127.18 163.54 102.56H179.54C179.54 102.56 179.56 133.21 195.76 142.78C195.76 142.78 170.27 166.43 151.52 141.85V141.84Z" fill="white"/>
</mask>
<g mask="url(#mask5_22_12414)">
<g style="mix-blend-mode:multiply" opacity="0.34">
<path d="M171.34 131.48C179.326 131.48 185.8 126.278 185.8 119.86C185.8 113.443 179.326 108.24 171.34 108.24C163.354 108.24 156.88 113.443 156.88 119.86C156.88 126.278 163.354 131.48 171.34 131.48Z" fill="#D18161"/>
</g>
</g>
<path d="M132.7 306.9C132.7 306.9 130.8 301.68 128.91 296C127.02 290.32 118.95 289.84 112.79 293.16C106.63 296.48 93.8299 288.89 89.0799 288.42C84.3399 287.95 77.6999 288.42 79.1199 292.21C80.7799 296.65 86.7099 292.68 89.0799 295.53C91.4499 298.37 118.95 316.39 127.01 316.39C127.01 316.39 132.7 314.97 132.7 306.91V306.9Z" fill="#F4A082"/>
<path d="M212.99 300.02C212.99 300.02 215.38 295.01 217.82 289.53C220.26 284.05 228.32 284.35 234.14 288.25C239.96 292.15 253.43 285.83 258.19 285.81C262.95 285.79 269.52 286.91 267.73 290.54C265.65 294.8 260.13 290.28 257.5 292.88C254.87 295.48 225.76 310.77 217.74 309.99C217.74 309.99 212.21 308.03 212.99 300V300.02Z" fill="#F4A082"/>
<path d="M128.36 155.24C128.93 155.27 207.72 184.27 222.6 169.25C222.6 169.25 225.58 193.32 228.95 202.59C232.74 213.02 236.54 224.87 236.54 225.35C236.54 225.35 231.32 224.4 215.2 240.52C193.41 262.31 146.18 242.53 117.39 204.31C117.39 204.31 120.69 154.82 128.35 155.24H128.36Z" fill="#FFD2B9"/>
<mask id="mask6_22_12414" style="mask-type:luminance" maskUnits="userSpaceOnUse" x="117" y="155" width="120" height="95">
<path d="M128.36 155.24C128.93 155.27 207.72 184.27 222.6 169.25C222.6 169.25 225.58 193.32 228.95 202.59C232.74 213.02 236.54 224.87 236.54 225.35C236.54 225.35 231.32 224.4 215.2 240.52C193.41 262.31 146.18 242.53 117.39 204.31C117.39 204.31 120.69 154.82 128.35 155.24H128.36Z" fill="white"/>
</mask>
<g mask="url(#mask6_22_12414)">
<path d="M113.33 178.23C122.43 173.8 134.46 180.74 143.64 176.45C144.66 175.97 145.64 175.36 146.76 175.14C147.77 174.95 148.82 175.09 149.83 175.24L179.46 179.51C182.11 179.89 184.77 180.27 187.45 180.28C190.97 180.29 194.58 179.68 197.94 180.65C199.53 181.11 200.98 181.92 202.55 182.45C206.65 183.85 211.2 183.32 215.53 182.78C221.43 182.04 227.33 181.29 233.23 180.55C234.91 180.34 237.27 180.59 237.4 182.15C237.54 183.83 234.98 184.28 233.15 184.27C227.7 184.26 222.39 185.78 216.98 186.33C213.08 186.72 209.15 186.6 205.23 186.46C186.4 185.82 167.58 184.94 148.77 183.82C145.14 183.6 141.5 183.38 137.92 182.8C136.65 182.59 135.33 182.35 134.08 182.63C133.04 182.87 132.13 183.46 131.1 183.76C127.14 184.93 123.14 181.57 118.99 181.82C117.16 181.93 115.4 182.74 113.57 182.59C111.74 182.44 109.94 180.49 111.06 179.15" fill="#FCEBE6"/>
<path d="M109.88 193.19C110.29 191.16 113.22 190.45 115.36 191.07C117.5 191.69 119.24 193.15 121.32 193.92C127.72 196.28 134.69 191.59 141.58 191.9C146.24 192.11 150.66 194.61 155.29 194.09C156.66 193.93 157.97 193.52 159.34 193.35C162.22 193 165.1 193.8 167.93 194.42C177.26 196.46 186.93 196.63 196.52 196.78C202.38 196.87 208.25 196.97 214.11 197.06C219.4 197.14 224.78 197.22 229.88 195.92C231.85 195.42 233.8 194.71 235.84 194.68C237.88 194.66 240.12 195.53 240.85 197.29C234.96 198.06 229.06 198.84 223.17 199.61C220.3 199.99 217.43 200.36 214.53 200.45C210.12 200.59 205.71 200.06 201.3 199.87C187.61 199.29 173.8 202.01 160.26 200.04C156.7 199.52 153.14 198.68 149.55 198.91C146.45 199.11 143.43 200.09 140.33 200C138.02 199.93 135.78 199.26 133.55 198.71C125.72 196.77 117.51 196.18 109.45 196.98L106.51 192.68C107.7 192.63 108.89 192.58 110.08 192.53" fill="#FCEBE6"/>
<path d="M109.93 208.56C114.1 206.04 119.62 206.65 124.38 208.01C129.14 209.37 133.81 211.39 138.8 211.41C143.47 211.44 147.96 209.7 152.63 209.48C160.04 209.13 167.33 212.62 174.67 211.63C177.77 211.21 180.72 210.01 183.85 209.79C186.16 209.63 188.48 210.01 190.76 210.4C195.34 211.17 199.92 211.94 204.49 212.71C205.9 212.95 207.33 213.19 208.76 213.1C210.62 212.99 212.38 212.33 214.12 211.74C218.51 210.24 223.02 209.04 227.6 208.16C230.07 207.69 232.78 207.33 235.02 208.4C235.88 208.81 236.64 209.42 237.57 209.68C239.39 210.18 241.25 209.21 243.1 208.81C244.95 208.41 247.53 209.17 247.43 210.92C242.2 212.64 236.45 211.77 230.91 212.02C225.02 212.28 219.3 213.81 213.49 214.72C204.42 216.15 195.07 216.06 186.03 214.47C182.93 213.93 179.85 213.2 176.7 213.09C172.96 212.95 169.26 213.67 165.56 214.11C156.31 215.21 146.93 214.58 137.62 213.95L122.31 212.91C118.36 212.64 114.39 212.37 110.55 211.49C109.73 211.3 108.84 211.04 108.39 210.38C107.94 209.72 108.32 208.6 109.16 208.6" fill="#FCEBE6"/>
<path d="M127.13 225.45C130.69 223.95 134.87 224.49 138.61 225.55C142.35 226.6 145.97 228.14 149.86 228.59C160.9 229.86 172.38 222.2 182.65 226.15C184.45 226.84 186.2 227.89 188.15 227.81C189.61 227.75 190.95 227.06 192.35 226.67C196.36 225.57 200.62 227.05 204.49 228.51C205.93 229.05 207.51 229.6 208.99 229.17C210.09 228.85 210.94 228.05 211.99 227.6C214.35 226.6 217.07 227.6 219.64 227.94C223.45 228.46 227.29 227.52 231.1 227C234.91 226.48 239.11 226.46 242.24 228.53C239.92 230.17 236.88 230.59 233.96 230.78C224.27 231.39 214.33 229.92 204.93 232.21C203.43 232.57 201.93 233.04 200.39 232.99C198.7 232.94 197.11 232.28 195.51 231.76C189.45 229.79 182.89 229.74 176.47 229.72C173.82 229.71 171.17 229.7 168.53 229.96C162.42 230.57 156.47 232.63 150.34 232.42C142.93 232.16 135.98 228.58 128.56 228.51C127.49 228.5 126.37 228.56 125.38 228.16C124.39 227.77 123.6 226.74 123.95 225.81C124.3 224.88 126.11 224.75 126.34 225.71" fill="#FCEBE6"/>
<path d="M112.85 167.1C114.77 163.82 119.35 162.6 123.38 162.93C127.41 163.26 131.2 164.78 135.14 165.63C139.22 166.51 143.48 166.65 147.62 166.05C149.83 165.73 152.06 165.2 154.27 165.51C156.39 165.8 158.3 166.84 160.35 167.39C167.65 169.35 175.06 165.1 182.59 164.15C187.63 163.51 192.75 164.37 197.75 165.26C209.97 167.43 222.46 169.8 234.78 168.14C234.71 170.91 230.77 171.86 227.77 171.96C215.88 172.33 203.96 171.94 192.12 170.8C186.18 170.23 180.23 169.47 174.27 169.79C170.09 170.02 165.94 170.78 161.76 170.63C154.72 170.37 147.99 167.55 140.95 167.44C137.33 167.38 133.74 168.05 130.14 168.41C125.23 168.9 120.25 168.81 115.37 168.14C114.36 168 113.26 167.79 112.62 167.07C111.97 166.34 112.22 164.95 113.23 164.82" fill="#FCEBE6"/>
<path d="M152.66 240.14C163.79 240.41 174.99 240.67 186.02 239.29C188.48 238.98 190.95 238.59 193.43 238.64C195.62 238.68 197.78 239.07 199.94 239.43C207.91 240.77 215.95 241.78 224.02 242.47C217.06 245.56 208.91 245.22 201.26 244.23C193.61 243.24 185.9 241.68 178.23 242.54C173.8 243.04 169.46 244.35 165 244.2C161.59 244.08 158.22 243.09 155.37 241.36" fill="#FCEBE6"/>
</g>
<path d="M202.75 92.19C202.75 111.79 180.82 127.69 171.58 127.69C162.34 127.69 140.41 111.8 140.41 92.19C140.41 72.58 153.79 48.04 171 48.04C188.21 48.04 202.75 72.59 202.75 92.19Z" fill="#F4A082"/>
<mask id="mask7_22_12414" style="mask-type:luminance" maskUnits="userSpaceOnUse" x="140" y="48" width="63" height="80">
<path d="M202.75 92.19C202.75 111.79 180.82 127.69 171.58 127.69C162.34 127.69 140.41 111.8 140.41 92.19C140.41 72.58 153.79 48.04 171 48.04C188.21 48.04 202.75 72.59 202.75 92.19Z" fill="white"/>
</mask>
<g mask="url(#mask7_22_12414)">
<g style="mix-blend-mode:multiply" opacity="0.18">
<path d="M170.79 58.5102C170.79 58.5102 181.99 82.1402 199.96 90.7302L177.65 57.8702L164.31 55.0102C164.31 55.0102 144.54 84.6102 147.4 93.5402C147.4 93.5402 163.78 61.8102 174.27 58.6402C184.76 55.4702 168.59 53.9702 168.59 53.9702" fill="#A05940"/>
</g>
</g>
<path d="M171.11 59.41C171.11 59.41 154.99 69.84 147.4 93.55C147.4 93.55 143.13 103.98 145.98 109.67C148.83 115.36 159.73 122.95 157.36 130.06C157.36 130.06 157.83 142.39 146.93 150.92C146.93 150.92 157.36 146.65 166.37 163.25C166.37 163.25 185.33 153.29 199.08 170.84C199.08 170.84 209.04 159.46 218.99 174.16C218.99 174.16 228 168 232.74 179.85C232.74 179.85 239.85 174.16 237.48 189.81C237.48 189.81 245.54 196.45 235.58 202.61C235.58 202.61 237 205.93 231.31 209.25L228.47 201.19C228.47 201.19 229.89 199.77 233.21 199.77C233.21 199.77 230.37 193.13 235.11 189.81C235.11 189.81 227.52 187.91 227.52 179.85C227.52 179.85 218.99 185.54 213.3 175.58C213.3 175.58 199.55 186.96 188.65 171.79C188.65 171.79 166.84 186.49 156.88 167.05C156.88 167.05 129.86 179.38 128.43 155.2C128.43 155.2 114.21 135.76 132.22 124.38C132.22 124.38 115.67 102.5 125.58 83.13C136.01 62.74 145.97 32.4 168.72 45.2C168.72 45.2 208.55 27.66 202.86 93.09C202.86 93.09 182.95 77.92 171.09 59.43L171.11 59.41Z" fill="#1D3542"/>
<mask id="mask8_22_12414" style="mask-type:luminance" maskUnits="userSpaceOnUse" x="122" y="42" width="119" height="168">
<path d="M171.11 59.41C171.11 59.41 154.99 69.84 147.4 93.55C147.4 93.55 143.13 103.98 145.98 109.67C148.83 115.36 159.73 122.95 157.36 130.06C157.36 130.06 157.83 142.39 146.93 150.92C146.93 150.92 157.36 146.65 166.37 163.25C166.37 163.25 185.33 153.29 199.08 170.84C199.08 170.84 209.04 159.46 218.99 174.16C218.99 174.16 228 168 232.74 179.85C232.74 179.85 239.85 174.16 237.48 189.81C237.48 189.81 245.54 196.45 235.58 202.61C235.58 202.61 237 205.93 231.31 209.25L228.47 201.19C228.47 201.19 229.89 199.77 233.21 199.77C233.21 199.77 230.37 193.13 235.11 189.81C235.11 189.81 227.52 187.91 227.52 179.85C227.52 179.85 218.99 185.54 213.3 175.58C213.3 175.58 199.55 186.96 188.65 171.79C188.65 171.79 166.84 186.49 156.88 167.05C156.88 167.05 129.86 179.38 128.43 155.2C128.43 155.2 114.21 135.76 132.22 124.38C132.22 124.38 115.67 102.5 125.58 83.13C136.01 62.74 145.97 32.4 168.72 45.2C168.72 45.2 208.55 27.66 202.86 93.09C202.86 93.09 182.95 77.92 171.09 59.43L171.11 59.41Z" fill="white"/>
</mask>
<g mask="url(#mask8_22_12414)">
<g style="mix-blend-mode:multiply" opacity="0.22">
<path d="M145.98 109.67C145.98 109.67 154.99 132.43 171.58 131.48C188.17 130.53 199.85 109.36 200.89 98.61C201.93 87.86 144.08 97.82 145.98 109.67Z" fill="#1D3542"/>
</g>
</g>
<path d="M147.78 95.0698C148.68 98.7498 147.43 102.23 144.99 102.83C142.54 103.43 139.83 100.93 138.92 97.2498C138.02 93.5698 139.27 90.0898 141.71 89.4898C144.16 88.8898 146.87 91.3898 147.78 95.0698Z" fill="#F4A082"/>
<path d="M199.65 91.75C198.75 95.43 200 98.91 202.44 99.51C204.89 100.11 207.6 97.61 208.51 93.93C209.41 90.25 208.16 86.77 205.72 86.17C203.27 85.57 200.56 88.07 199.65 91.75Z" fill="#F4A082"/>
<path d="M119.9 200.7C109.94 197.38 105.68 209.23 105.68 209.23C98.5699 206.39 96.6699 215.39 96.6699 215.39C90.5099 220.61 96.6699 227.72 96.6699 227.72C96.6699 228.52 96.7499 229.25 96.8799 229.92L102.22 227.14C100.88 227.11 99.9799 227.24 99.9799 227.24C102.35 222.5 98.5599 217.28 98.5599 217.28C105.67 217.75 108.04 211.59 108.04 211.59C133.64 221.07 140.28 191.68 140.28 191.68C140.28 191.68 129.85 204.01 119.89 200.69L119.9 200.7Z" fill="#1D3542"/>
<path d="M153.23 94.2399C155.31 94.7399 157.34 94.9699 159.38 94.8199C161.42 94.6899 163.4 94.1799 165.4 93.3999C163.79 94.8399 161.62 95.6099 159.45 95.7599C157.28 95.8999 155.02 95.4399 153.23 94.2399Z" fill="#2E2430"/>
<path d="M167.32 116.01C170.22 117.18 173.35 116.94 176.06 115.39C176.52 115.13 176.1 114.42 175.65 114.68C173.11 116.14 170.25 116.31 167.55 115.22C167.06 115.02 166.85 115.82 167.33 116.01H167.32Z" fill="#A34F31"/>
<path d="M167.43 108.03C168.22 108.05 168.92 108.1 169.62 108.1C170.31 108.1 170.99 108.1 171.66 108.04C172.33 107.99 173.01 107.92 173.69 107.81C174.38 107.71 175.07 107.57 175.85 107.44C175.38 108.08 174.73 108.54 174.03 108.88C173.32 109.21 172.55 109.41 171.76 109.46C170.98 109.51 170.18 109.43 169.43 109.2C168.69 108.96 167.98 108.59 167.43 108.03Z" fill="#A34F31"/>
<path d="M178.85 94.32C180.93 94.82 182.96 95.05 185 94.9C187.04 94.77 189.02 94.26 191.02 93.48C189.41 94.92 187.24 95.69 185.07 95.84C182.9 95.98 180.64 95.52 178.85 94.32Z" fill="#2E2430"/>
<path d="M153.08 89.6001C155.87 86.3901 159.97 84.9301 164.16 85.7401C164.88 85.8801 165.19 84.7801 164.46 84.6401C159.89 83.7501 155.33 85.2601 152.27 88.7901C151.79 89.3401 152.59 90.1501 153.08 89.6001Z" fill="#1D3542"/>
<path d="M191.37 88.2999C188.31 84.7699 183.75 83.2599 179.18 84.1499C178.46 84.2899 178.76 85.3899 179.48 85.2499C183.67 84.4299 187.77 85.8899 190.56 89.1099C191.04 89.6699 191.85 88.8499 191.37 88.2999Z" fill="#1D3542"/>
<path d="M172.04 57.7998C172.67 60.7698 173.85 63.7898 175.29 66.5798C176.74 69.3898 178.49 72.0698 180.57 74.4798C182.64 76.8798 184.93 79.1498 187.52 81.0198C188.76 82.0398 190.16 82.8298 191.51 83.6998C192.88 84.5398 194.35 85.1998 195.77 85.9598C194.32 85.2698 192.81 84.6798 191.4 83.9098C190 83.1098 188.56 82.3698 187.25 81.4098C184.53 79.6498 182.1 77.4698 179.86 75.1098C177.61 72.7498 175.69 70.0898 174.04 67.2698C172.4 64.4198 171.05 61.4698 170.18 58.1798L172.04 57.8098V57.7998Z" fill="#1D3542"/>
<path d="M172.69 55.7498C172.03 57.2598 171.55 58.9998 171.25 60.6998C170.95 62.4198 170.86 64.1798 170.98 65.9298C171.08 67.6898 171.46 69.4298 172.09 71.0898C172.66 72.7798 173.64 74.2998 174.67 75.7698C173.52 74.3998 172.39 72.9498 171.66 71.2798C170.87 69.6398 170.31 67.8698 170.05 66.0498C169.76 64.2298 169.7 62.3698 169.86 60.5298C170.03 58.6698 170.34 56.8798 170.96 55.0298L172.71 55.7598L172.69 55.7498Z" fill="#1D3542"/>
<path d="M174.27 57.57C173.45 58.1 172.59 58.79 171.82 59.49C171.03 60.2 170.29 60.97 169.6 61.78C168.9 62.59 168.26 63.45 167.68 64.37C167.08 65.27 166.6 66.24 166.13 67.23C166.45 66.19 166.79 65.14 167.26 64.14C167.71 63.13 168.24 62.16 168.83 61.22C169.42 60.28 170.07 59.37 170.79 58.51C171.51 57.64 172.25 56.83 173.16 56.04L174.28 57.57H174.27Z" fill="#1D3542"/>
</svg>
